<?xml version="1.0" encoding="utf-8"?>
<!-- Generator: Adobe Illustrator 16.0.0, SVG Export Plug-In . SVG Version: 6.00 Build 0)  -->
<!DOCTYPE svg PUBLIC "-//W3C//DTD SVG 1.1//EN" "http://www.w3.org/Graphics/SVG/1.1/DTD/svg11.dtd">
<svg version="1.1" id="Layer_1" xmlns="http://www.w3.org/2000/svg" xmlns:xlink="http://www.w3.org/1999/xlink" x="0px" y="0px"
	 width="30.588px" height="25.997px" viewBox="0 0 30.588 25.997" enable-background="new 0 0 30.588 25.997" xml:space="preserve">
<g>
	<defs>
		<rect id="SVGID_1_" width="30.588" height="25.997"/>
	</defs>
	<clipPath id="SVGID_2_">
		<use xlink:href="#SVGID_1_"  overflow="visible"/>
	</clipPath>
	
		<path clip-path="url(#SVGID_2_)" fill="none" stroke="#A0A2A4" stroke-width="2" stroke-linecap="round" stroke-linejoin="round" stroke-miterlimit="10" d="
		M15.013,4.333c-0.551,0-1.32-0.317-1.708-0.707l-1.922-1.919C10.994,1.318,10.226,1,9.674,1H2C1.451,1,1,1.45,1,2v1.333V4.5v1.166
		v18.331c0,0.551,0.451,1,1.001,1h24.022c0.55,0,1.001-0.449,1.001-1V5.333c0-0.55-0.451-1-1.001-1H15.013z"/>
	<path clip-path="url(#SVGID_2_)" fill="#404041" d="M27.199,24.013c-0.082,0.542-0.598,0.984-1.149,0.984H2.004
		c-0.552,0-0.936-0.442-0.856-0.984L3.527,8.065C3.607,7.523,4.124,7.08,4.675,7.08h24.047c0.552,0,0.937,0.443,0.854,0.985
		L27.199,24.013z"/>
	
		<path clip-path="url(#SVGID_2_)" fill="none" stroke="#A0A2A4" stroke-width="2" stroke-linecap="round" stroke-linejoin="round" stroke-miterlimit="10" d="
		M27.199,24.013c-0.082,0.542-0.598,0.984-1.149,0.984H2.004c-0.552,0-0.936-0.442-0.856-0.984L3.527,8.065
		C3.607,7.523,4.124,7.08,4.675,7.08h24.047c0.552,0,0.937,0.443,0.854,0.985L27.199,24.013z"/>
</g>
</svg>
