<?xml version="1.0" encoding="utf-8"?>
<!-- Generator: Adobe Illustrator 16.0.0, SVG Export Plug-In . SVG Version: 6.00 Build 0)  -->
<!DOCTYPE svg PUBLIC "-//W3C//DTD SVG 1.1//EN" "http://www.w3.org/Graphics/SVG/1.1/DTD/svg11.dtd">
<svg version="1.1" id="Layer_1" xmlns="http://www.w3.org/2000/svg" xmlns:xlink="http://www.w3.org/1999/xlink" x="0px" y="0px"
	 width="29.588px" height="29.588px" viewBox="0 0 29.588 29.588" enable-background="new 0 0 29.588 29.588" xml:space="preserve">
<g>
	<defs>
		<rect id="SVGID_1_" width="29.588" height="29.588"/>
	</defs>
	<clipPath id="SVGID_2_">
		<use xlink:href="#SVGID_1_"  overflow="visible"/>
	</clipPath>
	
		<path clip-path="url(#SVGID_2_)" fill="none" stroke="#FF6F00" stroke-width="2" stroke-linejoin="round" stroke-miterlimit="10" d="
		M8.794,11.155v-4c0-0.55,0.45-1,1-1h10c0.55,0,1,0.45,1,1v15c0,0.55-0.45,1-1,1h-10c-0.55,0-1-0.45-1-1v-3"/>
</g>
<line fill="none" stroke="#FF6F00" stroke-linecap="round" stroke-miterlimit="10" x1="16.603" y1="14.654" x2="9.603" y2="14.654"/>
<g>
	<defs>
		<rect id="SVGID_3_" width="29.588" height="29.588"/>
	</defs>
	<clipPath id="SVGID_4_">
		<use xlink:href="#SVGID_3_"  overflow="visible"/>
	</clipPath>
	
		<circle clip-path="url(#SVGID_4_)" fill="none" stroke="#FF6F00" stroke-width="2" stroke-linecap="round" stroke-linejoin="round" stroke-miterlimit="10" cx="14.794" cy="14.794" r="13.794"/>
	<path clip-path="url(#SVGID_4_)" fill="#FF6F00" d="M10.603,16.686c0,0.55-0.39,0.775-0.866,0.5l-3.518-2.031
		c-0.477-0.275-0.477-0.725,0-1l3.518-2.03c0.477-0.275,0.866-0.05,0.866,0.5V16.686z"/>
</g>
</svg>
