<?xml version="1.0" encoding="UTF-8" standalone="no"?>
<!-- Created with Inkscape (http://www.inkscape.org/) -->

<svg
   xmlns:dc="http://purl.org/dc/elements/1.1/"
   xmlns:cc="http://creativecommons.org/ns#"
   xmlns:rdf="http://www.w3.org/1999/02/22-rdf-syntax-ns#"
   xmlns:svg="http://www.w3.org/2000/svg"
   xmlns="http://www.w3.org/2000/svg"
   xmlns:sodipodi="http://sodipodi.sourceforge.net/DTD/sodipodi-0.dtd"
   xmlns:inkscape="http://www.inkscape.org/namespaces/inkscape"
   width="13.396313mm"
   height="13.558344mm"
   viewBox="0 0 47.46725 48.041376"
   id="svg9579"
   version="1.1"
   inkscape:version="0.91 r13725"
   sodipodi:docname="logo.svg">
  <defs
     id="defs9581">
    <clipPath
       clipPathUnits="userSpaceOnUse"
       id="clipPath22">
      <path
         d="m 0,0 1280,0 0,800 L 0,800 0,0 Z"
         id="path24"
         inkscape:connector-curvature="0" />
    </clipPath>
  </defs>
  <sodipodi:namedview
     id="base"
     pagecolor="#ff6f00"
     bordercolor="#666666"
     borderopacity="1.0"
     inkscape:pageopacity="1"
     inkscape:pageshadow="2"
     inkscape:zoom="7.9195959"
     inkscape:cx="19.93004"
     inkscape:cy="32.076875"
     inkscape:document-units="px"
     inkscape:current-layer="layer1"
     showgrid="false"
     fit-margin-top="0"
     fit-margin-left="0"
     fit-margin-right="0"
     fit-margin-bottom="0"
     inkscape:window-width="1280"
     inkscape:window-height="960"
     inkscape:window-x="1366"
     inkscape:window-y="27"
     inkscape:window-maximized="1" />
  <metadata
     id="metadata9584">
    <rdf:RDF>
      <cc:Work
         rdf:about="">
        <dc:format>image/svg+xml</dc:format>
        <dc:type
           rdf:resource="http://purl.org/dc/dcmitype/StillImage" />
        <dc:title></dc:title>
      </cc:Work>
    </rdf:RDF>
  </metadata>
  <g
     inkscape:label="Layer 1"
     inkscape:groupmode="layer"
     id="layer1"
     transform="translate(145.87648,-508.34153)">
    <g
       transform="matrix(1.25,0,0,-1.25,-180.89261,1473.3249)"
       id="g18">
      <g
         id="g20"
         clip-path="url(#clipPath22)">
        <g
           id="g26"
           transform="translate(35.2419,768.3344)">
          <path
             d="m 0,0 c 0,-1.983 -1.618,-3.592 -3.614,-3.592 -1.996,0 -3.615,1.609 -3.615,3.592 0,1.984 1.619,3.591 3.615,3.591 C -1.618,3.591 0,1.984 0,0"
             style="fill:#ffffff;fill-opacity:1;fill-rule:nonzero;stroke:none"
             id="path28"
             inkscape:connector-curvature="0" />
        </g>
        <g
           id="g30"
           transform="translate(35.2419,758.1706)">
          <path
             d="m 0,0 c 0,-1.983 -1.618,-3.591 -3.614,-3.591 -1.996,0 -3.615,1.608 -3.615,3.591 0,1.985 1.619,3.593 3.615,3.593 C -1.618,3.593 0,1.985 0,0"
             style="fill:#ffffff;fill-opacity:1;fill-rule:nonzero;stroke:none"
             id="path32"
             inkscape:connector-curvature="0" />
        </g>
        <g
           id="g34"
           transform="translate(35.2419,748.0084)">
          <path
             d="m 0,0 c 0,-1.982 -1.618,-3.591 -3.614,-3.591 -1.996,0 -3.615,1.609 -3.615,3.591 0,1.985 1.619,3.592 3.615,3.592 C -1.618,3.592 0,1.985 0,0"
             style="fill:#ffffff;fill-opacity:1;fill-rule:nonzero;stroke:none"
             id="path36"
             inkscape:connector-curvature="0" />
        </g>
        <g
           id="g38"
           transform="translate(35.2419,737.8474)">
          <path
             d="m 0,0 c 0,-1.984 -1.618,-3.592 -3.614,-3.592 -1.996,0 -3.615,1.608 -3.615,3.592 0,1.984 1.619,3.592 3.615,3.592 C -1.618,3.592 0,1.984 0,0"
             style="fill:#ffffff;fill-opacity:1;fill-rule:nonzero;stroke:none"
             id="path40"
             inkscape:connector-curvature="0" />
        </g>
        <g
           id="g42"
           transform="translate(41.9169,771.9867)">
          <path
             d="m 0,0 c 1.997,0 3.614,-1.609 3.614,-3.591 0,-1.985 -1.617,-3.592 -3.614,-3.592 -1.997,0 -3.615,1.607 -3.615,3.592 C -3.615,-1.609 -1.997,0 0,0"
             style="fill:#ffffff;fill-opacity:1;fill-rule:nonzero;stroke:none"
             id="path44"
             inkscape:connector-curvature="0" />
        </g>
        <g
           id="g46"
           transform="translate(52.1432,771.9867)">
          <path
             d="m 0,0 c 1.998,0 3.615,-1.609 3.615,-3.591 0,-1.985 -1.617,-3.592 -3.615,-3.592 -1.995,0 -3.614,1.607 -3.614,3.592 C -3.614,-1.609 -1.995,0 0,0"
             style="fill:#ffffff;fill-opacity:1;fill-rule:nonzero;stroke:none"
             id="path48"
             inkscape:connector-curvature="0" />
        </g>
        <g
           id="g50"
           transform="translate(62.3707,771.9867)">
          <path
             d="m 0,0 c 1.998,0 3.616,-1.609 3.616,-3.591 0,-1.985 -1.618,-3.592 -3.616,-3.592 -1.996,0 -3.615,1.607 -3.615,3.592 C -3.615,-1.609 -1.996,0 0,0"
             style="fill:#ffffff;fill-opacity:1;fill-rule:nonzero;stroke:none"
             id="path52"
             inkscape:connector-curvature="0" />
        </g>
        <g
           id="g54"
           transform="translate(45.5933,758.187)">
          <path
             d="m 0,0 c 0,-1.983 -1.62,-3.591 -3.615,-3.591 -1.997,0 -3.614,1.608 -3.614,3.591 0,1.984 1.617,3.591 3.614,3.591 C -1.62,3.591 0,1.984 0,0"
             style="fill:#ffffff;fill-opacity:1;fill-rule:nonzero;stroke:none"
             id="path56"
             inkscape:connector-curvature="0" />
        </g>
        <g
           id="g58"
           transform="translate(45.5933,747.8864)">
          <path
             d="m 0,0 c 0,-1.983 -1.62,-3.591 -3.615,-3.591 -1.997,0 -3.614,1.608 -3.614,3.591 0,1.985 1.617,3.592 3.614,3.592 C -1.62,3.592 0,1.985 0,0"
             style="fill:#ffffff;fill-opacity:1;fill-rule:nonzero;stroke:none"
             id="path60"
             inkscape:connector-curvature="0" />
        </g>
        <g
           id="g62"
           transform="translate(52.2672,761.7014)">
          <path
             d="m 0,0 c 1.997,0 3.614,-1.607 3.614,-3.59 0,-1.985 -1.617,-3.593 -3.614,-3.593 -1.997,0 -3.614,1.608 -3.614,3.593 C -3.614,-1.607 -1.997,0 0,0"
             style="fill:#ffffff;fill-opacity:1;fill-rule:nonzero;stroke:none"
             id="path64"
             inkscape:connector-curvature="0" />
        </g>
        <g
           id="g66"
           transform="translate(61.6853,751.0218)">
          <path
             d="m 0,0 c 1.997,0 3.615,-1.607 3.615,-3.59 0,-1.985 -1.618,-3.591 -3.615,-3.591 -1.995,0 -3.615,1.606 -3.615,3.591 0,1.983 1.62,3.59 3.615,3.59"
             style="fill:#ffffff;fill-opacity:1;fill-rule:nonzero;stroke:none"
             id="path68"
             inkscape:connector-curvature="0" />
        </g>
        <g
           id="g70"
           transform="translate(51.5807,740.7376)">
          <path
             d="m 0,0 c 1.996,0 3.615,-1.607 3.615,-3.591 0,-1.984 -1.619,-3.593 -3.615,-3.593 -1.996,0 -3.615,1.609 -3.615,3.593 C -3.615,-1.607 -1.996,0 0,0"
             style="fill:#ffffff;fill-opacity:1;fill-rule:nonzero;stroke:none"
             id="path72"
             inkscape:connector-curvature="0" />
        </g>
        <g
           id="g74"
           transform="translate(61.8082,740.7376)">
          <path
             d="m 0,0 c 1.998,0 3.615,-1.607 3.615,-3.591 0,-1.984 -1.617,-3.593 -3.615,-3.593 -1.997,0 -3.615,1.609 -3.615,3.593 C -3.615,-1.607 -1.997,0 0,0"
             style="fill:#ffffff;fill-opacity:1;fill-rule:nonzero;stroke:none"
             id="path76"
             inkscape:connector-curvature="0" />
        </g>
      </g>
    </g>
  </g>
</svg>
