<?xml version="1.0" encoding="UTF-8" standalone="no"?>
<!-- Created with Inkscape (http://www.inkscape.org/) -->

<svg
   xmlns:dc="http://purl.org/dc/elements/1.1/"
   xmlns:cc="http://creativecommons.org/ns#"
   xmlns:rdf="http://www.w3.org/1999/02/22-rdf-syntax-ns#"
   xmlns:svg="http://www.w3.org/2000/svg"
   xmlns="http://www.w3.org/2000/svg"
   xmlns:sodipodi="http://sodipodi.sourceforge.net/DTD/sodipodi-0.dtd"
   xmlns:inkscape="http://www.inkscape.org/namespaces/inkscape"
   sodipodi:docname="logout.svg"
   inkscape:version="0.91 r13725"
   version="1.1"
   id="svg7776"
   viewBox="0 0 36.985001 36.985001"
   height="10.437989mm"
   width="10.437989mm">
  <sodipodi:namedview
     inkscape:window-maximized="1"
     inkscape:window-y="25"
     inkscape:window-x="0"
     inkscape:window-height="1025"
     inkscape:window-width="1680"
     fit-margin-bottom="0"
     fit-margin-right="0"
     fit-margin-left="0"
     fit-margin-top="0"
     showgrid="false"
     inkscape:current-layer="svg7776"
     inkscape:document-units="px"
     inkscape:cy="11.074831"
     inkscape:cx="25.609525"
     inkscape:zoom="11.2"
     inkscape:pageshadow="2"
     inkscape:pageopacity="0"
     borderopacity="1.0"
     bordercolor="#666666"
     pagecolor="#000000"
     id="base" />
  <defs
     id="defs7778">
    <clipPath
       id="clipPath452"
       clipPathUnits="userSpaceOnUse">
      <path
         inkscape:connector-curvature="0"
         id="path454"
         d="m 0,0 1280,0 0,800 L 0,800 0,0 Z" />
    </clipPath>
  </defs>
  <metadata
     id="metadata7781">
    <rdf:RDF>
      <cc:Work
         rdf:about="">
        <dc:format>image/svg+xml</dc:format>
        <dc:type
           rdf:resource="http://purl.org/dc/dcmitype/StillImage" />
        <dc:title></dc:title>
      </cc:Work>
    </rdf:RDF>
  </metadata>
  <g
     transform="translate(-161.5075,-219.58399)"
     id="layer1"
     inkscape:groupmode="layer"
     inkscape:label="Layer 1">
    <g
       transform="matrix(1.25,0,0,-1.25,172.5,233.52812)"
       id="g440">
      <path
         inkscape:connector-curvature="0"
         id="path442"
         style="fill:none;stroke:#ff6f00;stroke-width:2;stroke-linecap:butt;stroke-linejoin:round;stroke-miterlimit:10;stroke-dasharray:none;stroke-opacity:1"
         d="m 0,0 0,4 c 0,0.55 0.45,1 1,1 l 10,0 c 0.55,0 1,-0.45 1,-1 l 0,-15 c 0,-0.55 -0.45,-1 -1,-1 l -10,0 c -0.55,0 -1,0.45 -1,1 l 0,3" />
    </g>
    <g
       transform="matrix(1.25,0,0,-1.25,169.45925,237.90312)"
       id="g444">
      <path
         inkscape:connector-curvature="0"
         id="path446"
         style="fill:none;stroke:#ff6f00;stroke-width:1;stroke-linecap:round;stroke-linejoin:miter;stroke-miterlimit:10;stroke-dasharray:none;stroke-opacity:1"
         d="M 0,0 7,0" />
    </g>
    <g
       id="g448"
       transform="matrix(1.25,0,0,-1.25,121.25,296.20149)">
      <g
         clip-path="url(#clipPath452)"
         id="g450">
        <g
           transform="translate(60.794,46.5)"
           id="g456">
          <path
             inkscape:connector-curvature="0"
             id="path458"
             style="fill:none;stroke:#ff6f00;stroke-width:2;stroke-linecap:round;stroke-linejoin:round;stroke-miterlimit:10;stroke-dasharray:none;stroke-opacity:1"
             d="m 0,0 c 0,-7.619 -6.176,-13.794 -13.794,-13.794 -7.618,0 -13.794,6.175 -13.794,13.794 0,7.618 6.176,13.794 13.794,13.794 C -6.176,13.794 0,7.618 0,0 Z" />
        </g>
        <g
           transform="translate(44.5674,48.6699)"
           id="g460">
          <path
             inkscape:connector-curvature="0"
             id="path462"
             style="fill:#ff6f00;fill-opacity:1;fill-rule:nonzero;stroke:none"
             d="m 0,0 c 0,0.55 0.39,0.775 0.866,0.5 l 3.518,-2.031 c 0.476,-0.276 0.476,-0.725 0,-1 L 0.866,-4.561 C 0.39,-4.837 0,-4.611 0,-4.061 L 0,0 Z" />
        </g>
      </g>
    </g>
  </g>
</svg>
