<?xml version="1.0" encoding="UTF-8" standalone="no"?>
<svg
   xmlns:dc="http://purl.org/dc/elements/1.1/"
   xmlns:cc="http://creativecommons.org/ns#"
   xmlns:rdf="http://www.w3.org/1999/02/22-rdf-syntax-ns#"
   xmlns:svg="http://www.w3.org/2000/svg"
   xmlns="http://www.w3.org/2000/svg"
   version="1.1"
   id="svg5726"
   viewBox="0 0 31.999998 32"
   height="32"
   width="32">
  <defs
     id="defs5728">
    <clipPath
       id="clipPath374"
       clipPathUnits="userSpaceOnUse">
      <path
         id="path376"
         d="m 0,0 1280,0 0,800 L 0,800 0,0 Z" />
    </clipPath>
  </defs>
  <metadata
     id="metadata5731">
    <rdf:RDF>
      <cc:Work
         rdf:about="">
        <dc:format>image/svg+xml</dc:format>
        <dc:type
           rdf:resource="http://purl.org/dc/dcmitype/StillImage" />
        <dc:title></dc:title>
      </cc:Work>
    </rdf:RDF>
  </metadata>
  <g
     transform="translate(-107.13491,-264.00826)"
     id="layer1">
    <g
       id="g370"
       transform="matrix(1.25,0,0,-1.25,-982.56572,1159.4499)" />
    <g
       transform="translate(0.27774889,-0.92538516)"
       id="g6302">
      <g
         transform="matrix(1.25,0,0,-1.25,-982.56569,1159.4499)"
         id="g372"
         clip-path="url(#clipPath374)">
        <g
           id="g378"
           transform="translate(890.6245,704.6907)" />
        <g
           id="g382"
           transform="translate(890.6245,704.6907)">
          <path
             d="m 0,0 c 0,-4.795 -3.887,-8.682 -8.682,-8.682 -4.795,0 -8.682,3.887 -8.682,8.682 0,4.795 3.887,8.682 8.682,8.682 C -3.887,8.682 0,4.795 0,0 Z"
             style="fill:none;stroke:#ffffff;stroke-width:3;stroke-linecap:butt;stroke-linejoin:round;stroke-miterlimit:10;stroke-dasharray:none;stroke-opacity:1"
             id="path384" />
        </g>
      </g>
      <g
         id="g386"
         transform="matrix(1.25,0,0,-1.25,129.83426,287.26314)">
        <path
           d="M 0,0 5.986,-5.986"
           style="fill:none;stroke:#ffffff;stroke-width:2;stroke-linecap:round;stroke-linejoin:round;stroke-miterlimit:10;stroke-dasharray:none;stroke-opacity:1"
           id="path388" />
      </g>
    </g>
  </g>
</svg>
