<?xml version="1.0" encoding="utf-8"?>
<!-- Generator: Adobe Illustrator 16.0.0, SVG Export Plug-In . SVG Version: 6.00 Build 0)  -->
<!DOCTYPE svg PUBLIC "-//W3C//DTD SVG 1.1//EN" "http://www.w3.org/Graphics/SVG/1.1/DTD/svg11.dtd">
<svg version="1.1" id="Layer_1" xmlns="http://www.w3.org/2000/svg" xmlns:xlink="http://www.w3.org/1999/xlink" x="0px" y="0px"
	 width="31.188px" height="31.187px" viewBox="0 0 31.188 31.187" enable-background="new 0 0 31.188 31.187" xml:space="preserve">
<g>
	<defs>
		<rect id="SVGID_1_" width="31.188" height="31.187"/>
	</defs>
	<clipPath id="SVGID_2_">
		<use xlink:href="#SVGID_1_"  overflow="visible"/>
	</clipPath>
	
		<circle clip-path="url(#SVGID_2_)" fill="none" stroke="#FFFFFF" stroke-width="2" stroke-linecap="round" stroke-linejoin="round" stroke-miterlimit="10" cx="15.593" cy="15.593" r="14.593"/>
	<path clip-path="url(#SVGID_2_)" fill="#00C1FF" d="M13.488,10.161c0-0.048,0.028-0.088,0.063-0.088h4.022
		c0.034,0,0.062,0.04,0.062,0.088v11.114c0,0.049-0.027,0.088-0.062,0.088h-4.022c-0.034,0-0.063-0.039-0.063-0.088V10.161z"/>
	<path clip-path="url(#SVGID_2_)" fill="#00C1FF" d="M11.135,11.744c-0.034,0-0.048-0.024-0.031-0.054l4.428-7.668
		c0.017-0.03,0.045-0.03,0.062,0l4.427,7.668c0.018,0.029,0.004,0.054-0.031,0.054H11.135z"/>
</g>
<line fill="none" stroke="#FFFFFF" stroke-width="2" stroke-linecap="round" stroke-linejoin="round" stroke-miterlimit="10" x1="8.49" y1="24" x2="22.695" y2="24"/>
</svg>
